# xmcd
#
# Track frame offsets:
#	150
#	18826
#	40950
#	58335
#	73285
#	86099
#	101066
#	116680
#	133172
#	149918
#	164284
#	178174
#	192818
#	209051
#	225996
#	242371
#	256907
#	273769
#	286005
#	299279
#
# Disc length: 4195 seconds
#
# Revision: 0
# Processed by: cddbd v1.5.2PL0 Copyright (c) Steve Scherf et al.
# Submitted via: dBpowerAMP V4.0
#
DISCID=34106114
DTITLE=Various Artist - Country Music Messe 2010 CD 2
DYEAR=2010
DGENRE=Country
TTITLE0=Jamestown Ferry - No Regrets
TTITLE1=Doug Atkins - Bismarck North Dakota
TTITLE2=Sawyer - Wheels
TTITLE3=Daniel D. Coates - Call My Name
TTITLE4=Hannes @ his BallroomKings - Hey, Mr. Cotton Picker
TTITLE5=Tish Hinojosa - Our Little Planet
TTITLE6=Michael Lonstar - Song For An Unwanted Woman
TTITLE7=Texas Heat - Three Bottles Left
TTITLE8=Gitty - California
TTITLE9=Maureen Mac Gillavry - Blue Kentucky Girl
TTITLE10=Henry Eye - Times Da Change
TTITLE11=Last Hot Dogs - Es gibt Momente
TTITLE12=Levin Langford - Sehnsucht nach Hause
TTITLE13=Take U. S. Music - Eyes Of A Child
TTITLE14=Stan Silver -True Love (is hard to find)
TTITLE15=The Hunters - Gilmore Creek
TTITLE16=The Twng - Let Me Entertain You
TTITLE17=Tore Andersen - Good Bye Blues
TTITLE18=Fred Heyden - Listen To the Country
TTITLE19=Wild Bunch - Train
EXTD=
EXTT0=
EXTT1=
EXTT2=
EXTT3=
EXTT4=
EXTT5=
EXTT6=
EXTT7=
EXTT8=
EXTT9=
EXTT10=
EXTT11=
EXTT12=
EXTT13=
EXTT14=
EXTT15=
EXTT16=
EXTT17=
EXTT18=
EXTT19=
PLAYORDER=
